
<svg xmlns="http://www.w3.org/2000/svg" version="1.1" xmlns:xlink="http://www.w3.org/1999/xlink" preserveAspectRatio="none" x="0px" y="0px" width="550px" height="528px" viewBox="0 0 550 528">
<defs>
<path id="Layer0_0_1_STROKES" stroke="#000000" stroke-width="1" stroke-linejoin="round" stroke-linecap="round" fill="none" d="
M 246.4 71.65
Q 248.9103515625 72.7177734375 251.275 73.875 255.2904296875 54.1470703125 268.75 36.5 248.257421875 54.05078125 246.4 71.65 243.950390625 70.604296875 241.35 69.65 241.9 77.639453125 242.775 85.45 250.246875 86.9126953125 256.3 90.6 256.8671875 90.9474609375 257.425 91.325 263.268359375 95.18203125 267.725 101.225 267.8634765625 101.4111328125 268 101.6 272.101171875 107.3087890625 275 114.9 277.9958984375 107.0576171875 282.3 101.25 282.508203125 100.9587890625 282.725 100.675 286.544921875 95.637890625 291.375 92.175 291.983203125 91.7369140625 292.6 91.325 299.0609375 87.05234375 307.225 85.45 308.10078125 77.6408203125 308.65 69.65 306.05 70.6 303.6 71.65 301.1 72.7 298.7 73.9 297.150390625 74.66640625 295.65 75.475 292.68359375 77.083203125 289.95 78.85 289.565625 79.101171875 289.175 79.35 288.891015625 79.551953125 288.6 79.75 280.6759765625 85.17421875 275 92.05 269.106640625 84.9240234375 260.825 79.375 260.522265625 79.1703125 260.225 78.975 260.1421875 78.9103515625 260.05 78.85 257.41328125 77.1326171875 254.55 75.575 252.9443359375 74.6978515625 251.275 73.875
M 260.825 79.375
Q 261.0037109375 79.182421875 261.2 79 261.7 78.5 262.25 78.05 267.55 73.9 275 73.9 282.45 73.9 287.7 78.05 288.517578125 78.6728515625 289.175 79.35
M 254.55 75.575
Q 257.2 66.1 264.8 59 260.1076171875 65.4896484375 260.05 78.85
M 308.65 69.65
Q 309.2125 61.6638671875 309.45 53.5 309.5 52.55 309.5 51.55 309.65 52.55 309.8 53.5 314.7 86.9 309.6 118.3 307.7978515625 129.347265625 304.75 140.15 297.4283203125 166.212109375 282.9 190.85
L 280.8 240.8
Q 305.5552734375 181.25859375 367.25 154.35 328.30546875 186.649609375 298.125 224.8 324.45 198.05 360.2 191.85 319.6982421875 213.229296875 293.025 241.475 308.7609375 230.1125 336.7 228.7 305.9869140625 235.79609375 280 256.75 278.8 278.85 287.95 305.6 328.0517578125 307.9966796875 348.85 330.1 320.9595703125 315.8443359375 291.5 310.4 306.55 322.4 311.95 337.95 300.978515625 319.7603515625 276.9 308.9
L 276.9 350 408 350 408 406.65 424.75 406.65 424.75 436.05 420.9 436.05 420.9 410.5 393.35 410.5 393.35 460.4 389.5 460.4 389.5 406.65 404.15 406.65 404.15 353.85 298.75 353.85 298.7 399.35 315.45 399.35 315.45 410.65 357.35 410.65 357.35 433.4 370.1 433.4 370.1 462.8 366.25 462.8 366.25 437.25 357.35 437.25 357.35 454.85 353.5 454.85 353.5 427.9 344.85 427.9 344.85 440.2 341 440.2 341 424.05 353.5 424.05 353.5 414.5 315.45 414.5 315.45 426.35 315.45 428.75 315.4 428.75 315.4 447.7 332.15 447.7 332.15 477.1 328.3 477.1 328.3 451.55 300.75 451.55 300.75 501.45 296.9 501.45 296.9 447.7 311.55 447.7 311.55 429.9 311.5 429.9 311.55 427.2
Q 311.6 426.35 311.6 425.5
L 311.6 403.2 284.05 403.2 284.1 478.65 280.25 478.65 280.25 453.1 280.2 453.1 280.25 450.4 280.2 399.35 294.85 399.35 294.9 353.85 251.25 353.85 251.25 367.25 265.15 367.25 265.2 367.25 265.2 369.45 265.2 391.95 261.35 391.95 261.35 371.1 221.85 371.1 221.85 401.55 254.25 401.55 254.25 437 250.4 437 250.4 405.4 185.65 405.4 185.65 426.5 202.4 426.5 202.4 455.9 198.55 455.9 198.55 430.35 171 430.35 171 466.45 167.15 466.45 167.15 426.5 181.8 426.5 181.8 401.55 218 401.55 218 371.1 143.85 371.1 143.85 384.05 160.6 384.05 160.6 427.85 156.75 427.85 156.75 387.9 129.2 387.9 129.2 434.75 143.85 434.75 143.85 474.7 140 474.7 140 438.6 112.45 438.6 112.45 464.15 108.6 464.15 108.6 434.75 125.35 434.75 125.35 384.05 140 384.05 140 371.1 125.35 371.1 125.35 367.25 247.4 367.25 247.4 350 273.05 350 273.05 308.9
Q 249.0158203125 319.80078125 238.05 337.95 243.4302734375 322.409375 258.475 310.4 229.0369140625 315.86328125 201.15 330.1 221.95 308 262.05 305.6 271.2 278.85 270 256.75 244.0208984375 235.793359375 213.3 228.7 241.25 230.1 257 241.45 230.396875 213.20859375 189.9 191.85 225.666015625 198.0275390625 251.9 224.825 221.7115234375 186.6638671875 182.75 154.35 244.63828125 181.34296875 269.35 241.175 269.598828125 241.7767578125 269.85 242.375
L 267.1 190.85
Q 246.55 156 240.4 118.3 235.3 86.9 240.2 53.5 240.35 52.55 240.5 51.55 240.5 52.55 240.55 53.5 240.7875 61.6642578125 241.35 69.65
M 242.775 85.45
Q 243.044140625 87.9107421875 243.35 90.35 244.45 99.2 245.95 107.8 246.11328125 108.762109375 246.275 109.725 246.3400390625 110.0873046875 246.4 110.45 265.23046875 117.7583984375 275 138.75 284.74609375 117.7583984375 303.575 110.45 303.8240234375 109.1310546875 304.05 107.8 305.55 99.2 306.65 90.35 306.955859375 87.9107421875 307.225 85.45
M 295.65 75.475
Q 292.8 66.1 285.2 59 289.9 65.5 289.95 78.85
M 303.6 71.65
Q 301.75 54.05 281.25 36.5 294.7 54.15 298.7 73.9
M 303.575 110.45
Q 302.873828125 114.405859375 302.05 118.3 301.7 119.95 301.35 121.55 301.2 122.2 301.05 122.9 300.9404296875 123.3943359375 300.825 123.9
L 300.825 123.925
Q 299.63359375 129.2109375 298.275 134.425 297.6671875 136.7546875 297.025 139.075 296.8765625 139.6130859375 296.725 140.15
L 296.75 140.15 296.725 140.175
Q 294.18671875 149.2240234375 291.15 158 290.686328125 159.3388671875 290.2 160.675 283.8689453125 178.4412109375 275.45 195 275.45 194.95 275.4 194.9 275.2 194.5 275 194.1 274.8 194.5 274.6 194.9 274.55 194.95 274.55 195 267.75703125 181.639453125 262.325 167.5 260.50859375 162.788671875 258.85 158 257.9025390625 155.262109375 257 152.5 255.01640625 146.3919921875 253.275 140.15 250.88828125 131.6462890625 248.95 122.9 248.8 122.2 248.65 121.55 248.3 119.95 247.95 118.3 247.1251953125 114.4009765625 246.4 110.45
M 296.725 140.15
L 296.725 140.175
M 253.275 140.15
Q 267.7298828125 142.440234375 275 160.65 282.25 142.45 296.725 140.15
M 265.15 367.25
L 265.2 369.45
M 315.45 426.35
L 315.4 428.75
M 311.55 429.9
L 311.55 427.2
M 280.25 453.1
L 280.25 450.4"/>
</defs>

<g transform="matrix( 1, 0, 0, 1, 0,0) ">
<use xlink:href="#Layer0_0_1_STROKES"/>
</g>
</svg>
